<svg xmlns="http://www.w3.org/2000/svg"  viewBox="0 0 48 48" width="240px" height="240px" baseProfile="basic"><linearGradient id="mGaMMp7xpks6Ze7YJPSuja" x1="-9.533" x2="67.842" y1="46.516" y2="1.843" gradientUnits="userSpaceOnUse"><stop offset="0" stop-color="#faf3df"/><stop offset="1" stop-color="#84b8aa"/></linearGradient><path fill="url(#mGaMMp7xpks6Ze7YJPSuja)" d="M39,11.87V40c0,2.21-1.79,4-4,4H9V12h29C38.35,12,38.68,11.96,39,11.87z"/><linearGradient id="mGaMMp7xpks6Ze7YJPSujb" x1="24" x2="24" y1="-19.323" y2="10.755" gradientUnits="userSpaceOnUse"><stop offset="0" stop-color="#faf3df"/><stop offset="1" stop-color="#255b70"/></linearGradient><path fill="url(#mGaMMp7xpks6Ze7YJPSujb)" d="M30,7H18V5c0-1.657,1.343-3,3-3h9V7z"/><linearGradient id="mGaMMp7xpks6Ze7YJPSujc" x1="24" x2="24" y1="2.78" y2="61.578" gradientUnits="userSpaceOnUse"><stop offset="0" stop-color="#255b70" stop-opacity="0"/><stop offset="1" stop-color="#255b70"/></linearGradient><path fill="url(#mGaMMp7xpks6Ze7YJPSujc)" d="M26,40h-4V18c0-1.105,0.895-2,2-2h0c1.105,0,2,0.895,2,2V40z M34,18c0-1.105-0.895-2-2-2h0	c-1.105,0-2,0.895-2,2v22h4V18z M18,18c0-1.105-0.895-2-2-2h0c-1.105,0-2,0.895-2,2v22h4V18z"/><linearGradient id="mGaMMp7xpks6Ze7YJPSujd" x1="3.671" x2="38.273" y1="-25.711" y2="34.222" gradientUnits="userSpaceOnUse"><stop offset="0" stop-color="#faf3df"/><stop offset="1" stop-color="#255b70"/></linearGradient><path fill="url(#mGaMMp7xpks6Ze7YJPSujd)" d="M38,12H6v-1c0-2.209,1.791-4,4-4h32v1C42,10.209,40.209,12,38,12z"/></svg>